<svg id="Layer_1" data-name="Layer 1" xmlns="http://www.w3.org/2000/svg" viewBox="0 0 820.21 206.88"><defs><style>.cls-1{fill:#fff;}</style></defs><path class="cls-1" d="M318.4,0H319a12.93,12.93,0,0,1,12.93,12.93l-.12,177.17a13.2,13.2,0,0,1-13.2,13.2h0a13.2,13.2,0,0,1-13.21-13.2v-5.43c-16,14.75-30.08,22.21-51.17,22.21q-32.19,0-53.23-22.42t-21-55.16q0-32.19,21-54.61t52.68-22.42c21.09,0,35.51,7.11,51.72,22l.12-61.37A12.93,12.93,0,0,1,318.4,0ZM220.06,166.11Q233.52,181,255.39,181t35.33-14.93q13.47-14.94,13.47-36.8,0-21.34-13.47-36.27T255.39,78.11q-21.87,0-35.33,14.93t-13.47,36.27Q206.59,151.18,220.06,166.11Z"/><path class="cls-1" d="M430.81,185h0a11.78,11.78,0,0,1-5.39,15.76q-12.81,6.16-29.3,6.17-23.4,0-35.22-14.45t-11.83-40.85V78.4l.28-22.55,0-42.63A12.93,12.93,0,0,1,362.3.29h0a12.93,12.93,0,0,1,12.93,12.93l0,42.63h37a11.28,11.28,0,0,1,11.28,11.28h0A11.28,11.28,0,0,1,412.2,78.4h-37v75.11q0,29.16,23.93,29.16a43.75,43.75,0,0,0,16.67-3.51A11.77,11.77,0,0,1,430.81,185Z"/><path class="cls-1" d="M444.64,190.1V68.36a12.52,12.52,0,0,1,12.52-12.51h0a12.51,12.51,0,0,1,12.51,12.51v6.22C477.88,61.36,493.29,52,512,52c1.47,0,2.92,0,4.38.14A12.68,12.68,0,0,1,528.23,66h0a12.66,12.66,0,0,1-13.5,11.41q-1.63-.12-3.24-.12c-11.74,0-20.41,4-28,12.11s-12.42,21-12.42,36.76V190.1a13.2,13.2,0,0,1-13.2,13.2h0A13.2,13.2,0,0,1,444.64,190.1Z"/><path class="cls-1" d="M660.13,55.85h0A12.65,12.65,0,0,1,672.78,68.5V190.65a12.65,12.65,0,0,1-12.65,12.65h0a12.65,12.65,0,0,1-12.66-12.65v-6.26c-13.48,14.14-30.53,22.49-52,22.49q-31.63,0-52.68-22.56t-21-55.85q0-33,20.91-54.61t52.82-21.59c20.91,0,36.53,7.55,52,22V68.5A12.65,12.65,0,0,1,660.13,55.85ZM561.78,166.13q13.35,15,35.23,15t35.49-15q13.61-14.94,13.61-36.82,0-21.36-13.61-36.3T597,78.07q-21.88,0-35.23,14.94t-13.34,36.56Q548.44,151.19,561.78,166.13Z"/><path class="cls-1" d="M689.26,190.65V68.5a12.65,12.65,0,0,1,12.66-12.65h.55A12.65,12.65,0,0,1,715.12,68.5v5.25C726.26,59.6,740.06,52,761.89,52q24.75,0,41.54,16t16.78,45.94v76.76a12.65,12.65,0,0,1-12.65,12.65h-.83a12.65,12.65,0,0,1-12.65-12.65V121.32q0-21.46-10.46-33.15c-7-7.79-15-11.69-26.23-11.69q-17.89,0-29.3,12.65a49.89,49.89,0,0,0-12.42,33.47v68.05A12.65,12.65,0,0,1,703,203.3h-1.1A12.65,12.65,0,0,1,689.26,190.65Z"/><path class="cls-1" d="M28.58,152.23c-8.52,0-16.39,6.14-19.59,14H9l-8,18c-4,9.1,2.31,19,13.08,19h0c6.26,0,11.88-3.49,14.15-8.8l19.12-42.27Z"/><path class="cls-1" d="M180.13,184.31,103.23,8.53A13.76,13.76,0,0,0,78,8.58L38.91,98.9c-5.57,13.75,3.3,24.82,18.14,24.82h1.7L90.67,47.87,152.8,194.5c2.27,5.31,7.89,8.8,14.15,8.8H167C177.78,203.3,184.13,193.41,180.13,184.31Z"/><circle class="cls-1" cx="90.56" cy="137.97" r="19.02"/></svg>